<svg xmlns="http://www.w3.org/2000/svg"
    xmlns:xlink="http://www.w3.org/1999/xlink"
    width="520"
    height="210"
    viewBox="0 0 137.6 55.6">

    <defs>
        <path id="glyph-mark"
            fill="#231f20"
            d="m0 0-.6-2.6h-.2v.7l-.2.6q0 .3-.3.5l-.5.3-.7.1A3 3 0 0 1-4.4-1a6 6 0 0 1-2-4.3q0-1.1.7-1.8t1.7-.7q.8 0 1.5.4.6.3 1.2 1h.2q-.6-1-1.4-1.4-.7-.5-1.9-.5-1 0-1.7.4-.8.5-1.1 1.1t-.4 1.6q0 1.3.7 2.6A5 5 0 0 0-5-.7q1.2.7 2.4.7.6 0 1.3-.3h.7l.4.3z" />
    </defs>

    <!-- Shaded region -->
    <g transform="translate(55.2,27.6) scale(0.3528,-0.3528)">
        <path
            fill="#d3d2d2"
            stroke="#231f20"
            stroke-linejoin="round"
            stroke-miterlimit="10"
            d="M0 0
         a77 77 0 0 0-15.7-46.7
         a77 77 0 0 0 1 92.2
         A77 77 0 0 0 0 0" />
    </g>

    <!-- Inner arc -->
    <g transform="translate(67.4,31.3) scale(0.3528,-0.3528)">
        <path
            fill="none"
            stroke="#231f20"
            stroke-miterlimit="10"
            d="M0 0a15.5 15.5 0 0 0 .1 18.8" />
    </g>

    <!-- Outer boundaries -->
    <g
        fill="none"
        stroke="#231f20"
        stroke-linejoin="round"
        stroke-miterlimit="10">

        <path
            transform="translate(44.4,28) scale(0.3528,-0.3528)"
            d="M0 0
         c0-17 5.5-32.7 14.8-45.5
         A77.9 77.9 0 0 0-125.4 1.2
         A77.9 77.9 0 0 0 15.7 46.7
         A77 77 0 0 1 0 0Z" />

        <path
            transform="translate(99.4,28) scale(0.3528,-0.3528)"
            d="M0 0
         a78 78 0 0 0-141.1-45.5
         77 77 0 0 1 .9 92.2
         A78 78 0 0 0 0 0Z" />
    </g>

    <!-- Radius lines -->
    <path
        fill="none"
        stroke="#231f20"
        stroke-linejoin="round"
        stroke-miterlimit="10"
        stroke-width="0.4"
        d="M50 11.5 72 28 49.5 44" />

    <!-- Top-right note -->
    <text
        fill="#231f20"
        font-family="Times New Roman"
        font-size="12"
        transform="translate(108.6,3.3) scale(0.3528)">
        <tspan x="0" y="0">Diagram </tspan>
        <tspan x="45" y="0" font-weight="700">NOT </tspan>
        <tspan x="0" y="14.4">accurately drawn</tspan>
    </text>

    <!-- Labels -->
    <text
        fill="#231f20"
        font-family="Times New Roman"
        font-size="12"
        transform="translate(61,40.2) scale(0.3528)">

        <tspan x="0" y="0" dx="0 0 -.6">7 cm</tspan>
        <tspan x="0" y="-63.6" dx="0 0 -.6">7 cm</tspan>

        <tspan x="-34.7" y="-90.7" font-style="italic">A</tspan>
        <tspan x="-37.8" y="28" font-style="italic">B</tspan>
        <tspan x="-37.8" y="-34" font-style="italic">R</tspan>
        <tspan x="32.8" y="-29.7" font-style="italic">O</tspan>
    </text>

    <!-- Angle label -->
    <text
        fill="#231f20"
        font-family="Times New Roman"
        font-size="12"
        transform="translate(56.7,29.4) scale(0.3528)">
        <tspan x="0" y="0" font-style="italic">θ </tspan>
        <tspan x="8.9" y="0">rad</tspan>
    </text>

    <!-- Question numbers -->
    <g transform="scale(0.3528,-0.3528)">
        <use xlink:href="#glyph-mark" transform="translate(5.3,3)" />

        <path
            fill="#231f20"
            transform="translate(5.3,5.1)"
            d="m0 0 1.2.6v-4l.1-.6.1-.1H2v-.2H0v.1l.4.1.2.1v3.8l-.1.1-.2.1L0-.1Z" />

        <use xlink:href="#glyph-mark" transform="translate(96.1,3.1)" />

        <path
            fill="#231f20"
            transform="translate(97.3,6.4)"
            d="m0 0-.3-1h-2.8v.2l1.7 1.9q.6.7.5 1.3 0 .4-.3.7l-.6.3-.7-.2-.4-.6H-3q0 .7.4 1t1 .3 1-.3q.3-.4.3-1L-.5 2q-.2-.6-.8-1.2-1-1-1-1.2h1.7z" />
    </g>

</svg>