<svg xmlns="http://www.w3.org/2000/svg" xmlns:xlink="http://www.w3.org/1999/xlink" width="482.2" height="414.6" viewBox="0 0 127.6 109.7"><defs><clipPath id="a" clipPathUnits="userSpaceOnUse"><path d="M-139.4-153.3h361.6v313h-361.6Z"/></clipPath><clipPath id="b" clipPathUnits="userSpaceOnUse"><path d="M-316.1-153.3H45.5v313h-361.6Z"/></clipPath><clipPath id="c" clipPathUnits="userSpaceOnUse"><path d="M-101.3 303.1h361.6v-313h-361.6Z"/></clipPath><clipPath id="d" clipPathUnits="userSpaceOnUse"><path d="M-112.4-307h361.6V6.1h-361.6Z"/></clipPath><clipPath id="e" clipPathUnits="userSpaceOnUse"><path d="M-357.7-153.3H4v313h-361.7Z"/></clipPath><clipPath id="h" clipPathUnits="userSpaceOnUse"><path d="M-14.8-115.8h361.6v313H-14.8Z"/></clipPath><path id="f" fill="#231f20" stroke="#231f20" d="m40.6 2.4-1-2-1 2Z"/><path id="g" fill="#231f20" stroke="#231f20" d="m125.2 56.5 2-1-2-1Z"/></defs><path fill="#a7a5a6" d="M0 0h-111.6c15 39.8 40.4 96.2 61.5 89.7C-36.7 85.7-19.3 44.3 0 0" clip-path="url(#a)" transform="matrix(.3528 0 0 -.3528 49.2 55.6)"/><path fill="#a7a5a6" d="M0 0c-22.9-40-63.4-102.8-96-112.6-27.1-8.2-55.5 54.7-80.7 112.6Z" clip-path="url(#b)" transform="matrix(.3528 0 0 -.3528 111.5 55.6)"/><text xml:space="preserve" transform="translate(74.7 100.4)scale(.3528)"><tspan x="0" y="0" fill="#231f20" font-family="Times New Roman" font-size="12" font-style="italic" font-weight="400">B</tspan><tspan x="105.5" y="-115.5" fill="#231f20" font-family="Times New Roman" font-size="12" font-style="italic" font-weight="400">P</tspan><tspan x="-203.9" y="-114.1" fill="#231f20" font-family="Times New Roman" font-size="12" font-style="italic" font-weight="400">M</tspan><tspan x="-131.8" y="-222.9" fill="#231f20" font-family="Times New Roman" font-size="12" font-style="italic" font-weight="400">A</tspan></text><text xml:space="preserve" clip-path="url(#c)" transform="translate(35.7 2.8)scale(.3528)"><tspan x="0" y="0" fill="#231f20" font-family="Times New Roman" font-size="12" font-style="italic" font-weight="400">y</tspan></text><text xml:space="preserve" transform="translate(125 59.4)scale(.3528)"><tspan x="0" y="0" fill="#231f20" font-family="Times New Roman" font-size="12" font-style="italic" font-weight="400">x</tspan></text><path fill="none" stroke="#231f20" stroke-miterlimit="10" d="M0 0v-307" clip-path="url(#d)" transform="matrix(.3528 0 0 -.3528 39.6 1.4)"/><path fill="none" stroke="#231f20" stroke-miterlimit="10" d="M0 0h-357.7" clip-path="url(#e)" transform="matrix(.3528 0 0 -.3528 126.2 55.6)"/><text xml:space="preserve" transform="translate(35.4 60)scale(.3528)"><tspan x="0" y="0" fill="#231f20" dx="0 20.8" font-family="Times New Roman" font-size="12" font-style="italic" font-weight="400">ON</tspan></text><use xlink:href="#f" fill-rule="evenodd" stroke-miterlimit="10" stroke-width=".4"/><use xlink:href="#f" stroke-width=".3"/><use xlink:href="#g" fill-rule="evenodd" stroke-miterlimit="10" stroke-width=".4"/><use xlink:href="#g" stroke-width=".3"/><text xml:space="preserve" transform="translate(97 9.3)scale(.3528)"><tspan x="0" y="0" fill="#231f20" font-family="Times New Roman" font-size="12" font-weight="400">Diagram </tspan><tspan x="45" y="0" fill="#231f20" font-family="Times New Roman" font-size="12" font-weight="700">NOT</tspan><tspan x="0" y="14.4" fill="#231f20" font-family="Times New Roman" font-size="12" font-weight="400">accurately drawn</tspan></text><path fill="none" stroke="#231f20" stroke-miterlimit="10" d="M0 0s42.2 137 74.5 127.3c31-9.5 82.9-216.8 130.8-202.4 48.3 14.5 114 145.8 114 145.8" clip-path="url(#h)" transform="matrix(.3528 0 0 -.3528 5.2 68.8)"/></svg>