<svg xmlns="http://www.w3.org/2000/svg" xmlns:xlink="http://www.w3.org/1999/xlink" width="380.2" height="167.8" viewBox="0 0 100.6 44.4"><defs><clipPath id="b" clipPathUnits="userSpaceOnUse"><use xlink:href="#a"/></clipPath><clipPath id="c" clipPathUnits="userSpaceOnUse"><path d="M-202.9 121.2H82.3V-10H-203Z"/></clipPath><clipPath id="d" clipPathUnits="userSpaceOnUse"><path d="M-72.5 3.7h285.2v-131.2H-72.5Z"/></clipPath><clipPath id="h" clipPathUnits="userSpaceOnUse"><path d="M-135.5-47h285.2V84.2h-285.2Z"/></clipPath><clipPath id="i" clipPathUnits="userSpaceOnUse"><use xlink:href="#a"/></clipPath><clipPath id="j" clipPathUnits="userSpaceOnUse"><path d="M-136-48.3h285.2V83H-136Z"/></clipPath><clipPath id="k" clipPathUnits="userSpaceOnUse"><path d="M-96.5-17h285.2v131.2H-96.5Z"/></clipPath><clipPath id="l" clipPathUnits="userSpaceOnUse"><path d="M-137.8-46.8h285.1V84.4h-285.1Z"/></clipPath><path id="a" d="M-150.4-92h285.1V39.4h-285.1Z"/><path id="e" fill="#231f20" stroke="#231f20" d="m50.4 14.2 2-1-2-1Z"/><path id="f" fill="#231f20" stroke="#231f20" d="m29.2 12.2-2 1 2 1Z"/><path id="g" fill="#231f20" stroke="#231f20" d="m62.3 38 1 2 1-2Z"/></defs><path fill="none" stroke="#231f20" stroke-miterlimit="10" d="M0 0c0-5.7-33.6-10.3-75-10.3S-150-5.7-150 0s33.6 10.4 75 10.4S0 5.6 0 0Z" clip-path="url(#b)" transform="matrix(.3528 0 0 -.3528 53 13.3)"/><path fill="#fff" d="M28 13.2h22.7Z"/><path fill="none" stroke="#231f20" stroke-miterlimit="10" stroke-width=".4" d="M28 13.2h22.7"/><path fill="#fff" d="M63.3 39.7V31Z"/><path fill="none" stroke="#231f20" stroke-miterlimit="10" stroke-width=".4" d="M63.3 31v8.7"/><text xml:space="preserve" transform="translate(35.2 9)scale(.3528)"><tspan x="0" y="0" fill="#231f20" dx="0 0 0 -2" font-family="Times New Roman" font-size="12" font-weight="400">20 cm</tspan></text><text xml:space="preserve" clip-path="url(#c)" transform="translate(71.6 3)scale(.3528)"><tspan x="0" y="0" fill="#231f20" font-family="Times New Roman" font-size="12" font-weight="400">Diagram </tspan><tspan x="45" y="0" fill="#231f20" font-family="Times New Roman" font-size="12" font-weight="700">NOT</tspan><tspan x="0" y="14.4" fill="#231f20" font-family="Times New Roman" font-size="12" font-weight="400">accurately drawn</tspan></text><text xml:space="preserve" transform="translate(65.5 35.6)scale(.3528)"><tspan x="0" y="0" fill="#231f20" font-family="Times New Roman" font-size="12" font-style="italic" font-weight="400">h</tspan><tspan x="6" y="0" fill="#231f20" font-family="Times New Roman" font-size="12" font-weight="400"> </tspan></text><text xml:space="preserve" clip-path="url(#d)" transform="translate(25.6 44.4)scale(.3528)"><tspan x="0" y="0" fill="#231f20" font-family="Times New Roman" font-size="12" font-style="italic" font-weight="400">A</tspan></text><use xlink:href="#e" fill-rule="evenodd" stroke-miterlimit="10" stroke-width=".4"/><use xlink:href="#e" stroke-width=".3"/><use xlink:href="#f" fill-rule="evenodd" stroke-miterlimit="10" stroke-width=".4"/><use xlink:href="#f" stroke-width=".3"/><path fill="#231f20" fill-rule="evenodd" stroke="#231f20" stroke-miterlimit="10" stroke-width=".4" d="m64.3 31.1-1-2-1 2Z"/><use xlink:href="#g" fill-rule="evenodd" stroke-miterlimit="10" stroke-width=".4"/><use xlink:href="#g" stroke-width=".3"/><path fill="#bdbcbc" stroke="#231f20" stroke-miterlimit="10" d="M0 0a74.8 74.8 0 0 0-120 0" clip-path="url(#h)" transform="matrix(.3528 0 0 -.3528 47.8 29.1)"/><path fill="none" stroke="#231f20" stroke-miterlimit="10" d="M0 0a75 75 0 0 0-15-45c-6.7-3.6-31-6.4-60-6.4s-53.2 2.8-60 6.5l-1.8 2.5A75 75 0 0 0-149.9 0c0-5.7 33.5-10.3 75-10.3C-33.7-10.3 0-5.7 0 0Z" clip-path="url(#i)" transform="matrix(.3528 0 0 -.3528 53 13.3)"/><path fill="#7b7979" stroke="#231f20" stroke-miterlimit="10" d="M0 0q0-1-1.8-2c-6.7-3.7-30.4-6.4-58.7-6.4s-52.1 2.7-58.8 6.3Q-121-1-121 0v.4c1.6 4.5 28.1 8 60.6 8C-28.1 8.4-1.6 5-.1.4L0 0" clip-path="url(#j)" transform="matrix(.3528 0 0 -.3528 48 28.7)"/><path fill="#7b7979" stroke="#231f20" stroke-miterlimit="10" d="M0 0h73.5" clip-path="url(#k)" transform="matrix(.3528 0 0 -.3528 34 39.7)"/><path fill="#7b7979" stroke="#231f20" stroke-miterlimit="10" d="M0 0h32.1" clip-path="url(#l)" transform="matrix(.3528 0 0 -.3528 48.6 29.2)"/></svg>