<svg xmlns="http://www.w3.org/2000/svg" width="357.8" height="207.9" viewBox="0 0 94.7 55"><defs><clipPath id="a" clipPathUnits="userSpaceOnUse"><path d="M-186.1 121.5H82.3V-39.9h-268.4z"/></clipPath><clipPath id="b" clipPathUnits="userSpaceOnUse"><path d="M-86 151.5h268.3V-10H-86z"/></clipPath><clipPath id="c" clipPathUnits="userSpaceOnUse"><path d="M-49.5 3.7h268.4v-161.5H-49.5z"/></clipPath></defs><text xml:space="preserve" transform="translate(65.7 8.3)scale(.3528)"><tspan x="0" y="0" fill="#231f20" font-family="Times New Roman" font-size="12" font-weight="400">Diagram </tspan><tspan x="45" y="0" fill="#231f20" font-family="Times New Roman" font-size="12" font-weight="700">NOT</tspan></text><text xml:space="preserve" clip-path="url(#a)" transform="translate(65.7 13.4)scale(.3528)"><tspan x="0" y="0" fill="#231f20" font-family="Times New Roman" font-size="12" font-weight="400">accurately drawn</tspan></text><text xml:space="preserve" transform="translate(.2 54.2)scale(.3528)"><tspan x="0" y="0" fill="#231f20" font-family="Times New Roman" font-size="12" font-style="italic" font-weight="400">A</tspan><tspan x="115.8" y="1.3" fill="#231f20" font-family="Times New Roman" font-size="12" font-style="italic" font-weight="400">D</tspan><tspan x="172.8" y="-60.1" fill="#231f20" font-family="Times New Roman" font-size="12" font-style="italic" font-weight="400">C</tspan></text><text xml:space="preserve" clip-path="url(#b)" transform="translate(30.4 2.8)scale(.3528)"><tspan x="0" y="0" fill="#231f20" font-family="Times New Roman" font-size="12" font-style="italic" font-weight="400">V</tspan></text><text xml:space="preserve" transform="translate(18.7 32)scale(.3528)"><tspan x="0" y="0" fill="#231f20" font-family="Times New Roman" font-size="12" font-style="italic" font-weight="400">B</tspan></text><path fill="none" stroke="#231f20" stroke-linejoin="round" stroke-miterlimit="10" stroke-width=".4" d="m31.7 3.4 28.6 28.4-18.2 19.3"/><path fill="none" stroke="#231f20" stroke-miterlimit="10" stroke-width=".4" d="m31.6 3.4-.1.5"/><path fill="none" stroke="#231f20" stroke-dasharray="1.1 .7" stroke-miterlimit="10" stroke-width=".4" d="M31.2 4.5 22 31"/><path fill="none" stroke="#231f20" stroke-miterlimit="10" stroke-width=".4" d="m21.9 31.3-.2.5h.5"/><path fill="none" stroke="#231f20" stroke-dasharray="1.1 .7" stroke-miterlimit="10" stroke-width=".4" d="M23 31.8h36.5"/><path fill="none" stroke="#231f20" stroke-miterlimit="10" stroke-width=".4" d="M59.8 31.8h.5"/><path fill="none" stroke="#231f20" stroke-linejoin="round" stroke-miterlimit="10" stroke-width=".4" d="M31.7 3.4 3.7 51H42Z"/><path fill="none" stroke="#231f20" stroke-miterlimit="10" stroke-width=".4" d="m3.6 51 .4-.3"/><path fill="none" stroke="#231f20" stroke-dasharray="1.1 .7" stroke-miterlimit="10" stroke-width=".4" d="m4.5 50.2 16.7-17.7"/><path fill="none" stroke="#231f20" stroke-miterlimit="10" stroke-width=".4" d="m21.5 32.2.3-.4"/><text xml:space="preserve" clip-path="url(#c)" transform="translate(17.5 55)scale(.3528)"><tspan x="0" y="0" fill="#231f20" dx="0 0 0 -.6" font-family="Times New Roman" font-size="12" font-weight="400">12 cm</tspan></text></svg>