<svg xmlns="http://www.w3.org/2000/svg" xmlns:xlink="http://www.w3.org/1999/xlink" width="484.2" height="377.5" viewBox="0 0 128.1 99.9"><defs><clipPath id="b" clipPathUnits="userSpaceOnUse"><path d="M-280.8-115H82.4v284h-363.2Z"/></clipPath><clipPath id="c" clipPathUnits="userSpaceOnUse"><path d="M-49 274h363V-10H-49Z"/></clipPath><clipPath id="d" clipPathUnits="userSpaceOnUse"><path d="M-59.8-279.2h363.2v284H-59.8Z"/></clipPath><clipPath id="e" clipPathUnits="userSpaceOnUse"><path d="M-108.5-81.4h363.2v284h-363.2Z"/></clipPath><clipPath id="h" clipPathUnits="userSpaceOnUse"><path d="M-311.4-161.5H51.8v284h-363.2Z"/></clipPath><clipPath id="i" clipPathUnits="userSpaceOnUse"><path d="M-281 235.2H82.4V-48.7H-281Z"/></clipPath><clipPath id="j" clipPathUnits="userSpaceOnUse"><use xlink:href="#a"/></clipPath><clipPath id="k" clipPathUnits="userSpaceOnUse"><path d="M-250.8-.7h363.2v284h-363.2Z"/></clipPath><clipPath id="l" clipPathUnits="userSpaceOnUse"><use xlink:href="#a"/></clipPath><path id="a" d="M-250.8-156.8h363.2V127h-363.2Z"/><path id="f" fill="#231f20" stroke="#231f20" d="m22.1 2.4-1-2-1 2Z"/><path id="g" fill="#231f20" stroke="#231f20" d="m107 72.1 2-1-2-1Z"/></defs><path fill="#a7a5a6" d="M0 0h-.7" clip-path="url(#b)" transform="matrix(.3528 0 0 -.3528 99 59.3)"/><text xml:space="preserve" transform="translate(48.1 52.7)scale(.3528)"><tspan x="0" y="0" fill="#231f20" font-family="Times New Roman" font-size="12" font-style="italic" font-weight="400">C</tspan><tspan x="113.1" y="-86.9" fill="#231f20" font-family="Times New Roman" font-size="12" font-style="italic" font-weight="400">l</tspan></text><text xml:space="preserve" clip-path="url(#c)" transform="translate(17.3 3.2)scale(.3528)"><tspan x="0" y="0" fill="#231f20" font-family="Times New Roman" font-size="12" font-style="italic" font-weight="400">y</tspan></text><text xml:space="preserve" transform="translate(106.9 75)scale(.3528)"><tspan x="0" y="0" fill="#231f20" font-family="Times New Roman" font-size="12" font-style="italic" font-weight="400">x</tspan></text><path fill="none" stroke="#231f20" stroke-miterlimit="10" d="M0 0v-279.2" clip-path="url(#d)" transform="matrix(.3528 0 0 -.3528 21.1 1.4)"/><path fill="none" stroke="#231f20" stroke-miterlimit="10" d="M0 0h-108.5" clip-path="url(#e)" transform="matrix(.3528 0 0 -.3528 38.3 71.2)"/><path fill="none" stroke="#231f20" stroke-miterlimit="10" stroke-width=".4" d="M109 71.2H88.5"/><text xml:space="preserve" transform="translate(17 74.7)scale(.3528)"><tspan x="0" y="0" fill="#231f20" font-family="Times New Roman" font-size="12" font-style="italic" font-weight="400">O</tspan></text><use xlink:href="#f" fill-rule="evenodd" stroke-miterlimit="10" stroke-width=".4"/><use xlink:href="#f" stroke-width=".3"/><use xlink:href="#g" fill-rule="evenodd" stroke-miterlimit="10" stroke-width=".4"/><use xlink:href="#g" stroke-width=".3"/><path fill="none" stroke="#231f20" stroke-miterlimit="10" d="M0 0a989 989 0 0 1-60.6-4.6" clip-path="url(#h)" transform="matrix(.3528 0 0 -.3528 109.8 43)"/><text xml:space="preserve" transform="translate(99.1 11.8)scale(.3528)"><tspan x="0" y="0" fill="#231f20" font-family="Times New Roman" font-size="12" font-weight="400">Diagram </tspan><tspan x="45" y="0" fill="#231f20" font-family="Times New Roman" font-size="12" font-weight="700">NOT </tspan></text><text xml:space="preserve" clip-path="url(#i)" transform="translate(99.1 16.9)scale(.3528)"><tspan x="0" y="0" fill="#231f20" font-family="Times New Roman" font-size="12" font-weight="400">accurately drawn</tspan></text><path fill="#a7a5a6" stroke="#231f20" stroke-miterlimit="10" d="M0 0v-75.4h-142.3a116 116 0 0 0 27 41C-95.5-16.1-60.8-6.1 0 0" clip-path="url(#j)" transform="matrix(.3528 0 0 -.3528 88.5 44.6)"/><path fill="none" stroke="#231f20" stroke-miterlimit="10" d="M0 0v98.6" clip-path="url(#k)" transform="matrix(.3528 0 0 -.3528 88.5 99.6)"/><path fill="none" stroke="#231f20" stroke-miterlimit="10" d="M0 0v60" clip-path="url(#l)" transform="matrix(.3528 0 0 -.3528 88.5 44.6)"/></svg>