<svg width="848" height="364" xmlns="http://www.w3.org/2000/svg" xmlns:xlink="http://www.w3.org/1999/xlink" overflow="hidden"><defs><clipPath id="clip0"><rect x="-3" y="-2" width="848" height="364"/></clipPath></defs><g clip-path="url(#clip0)" transform="translate(3 2)"><path d="M3 224 3 224 49 162 88 123 129 104 157 89C163 86 161 88 164 85L198 72C206 71 202 72 208 68L254 45C263 41 260 41 265 41L293 30C304 26 300 27 307 25L357 13 437 0 449 0 494 0 504 0 541 1C548 3 545 3 549 3L635 31 668 45 675 51 735 88 774 131 809 190 837 253 841 300 800 335 761 352 754 353 721 358 668 346 659 346 618 333 563 310 523 299 508 297 452 289 389 291 317 299 293 300 271 302 189 315 155 323 119 322 113 324 96 328 68 338 52 338 17 322 6 290 0 257 3 224Z" stroke="#7F7F7F" stroke-width="4" stroke-miterlimit="8" fill="#BFBFBF" fill-rule="evenodd"/><path d="M44 295 44 261 47 256 58 242 64 236 77 232 109 242 115 266 117 287 108 294 76 298 44 295Z" fill="#595959" fill-rule="evenodd"/><path d="M32 194 61 158 70 152 87 165 87 171 87 180 76 199 59 209 39 213 32 194Z" fill="#595959" fill-rule="evenodd"/><path d="M124 121 143 146 155 151 207 134C216 131 213 133 217 130L230 125 216 106 204 87 197 82 124 121Z" fill="#595959" fill-rule="evenodd"/><path d="M227 65C216 75 235 89 239 94 243 100 247 99 249 97 252 95 246 87 254 82 262 77 284 70 295 65 306 61 316 62 320 57 324 52 324 40 321 37 319 33 318 32 303 36 288 40 237 56 227 65Z" fill="#595959" fill-rule="evenodd"/><path d="M342 31 347 58 346 71 390 64C399 62 395 63 401 62L412 58 416 31 421 17 419 11 411 11 342 31Z" fill="#595959" fill-rule="evenodd"/><path d="M443 9 454 37 428 69 501 73 511 56C515 51 514 54 515 49L523 13 471 10 443 9Z" fill="#595959" fill-rule="evenodd"/><path d="M541 18 547 41 521 75 572 84 581 86 592 87 598 84 604 65 606 58 613 32 581 26 541 18Z" fill="#595959" fill-rule="evenodd"/><path d="M642 48 641 71 635 80 616 93 614 97 614 104 647 114 675 131 688 140 693 115 702 102 708 95 715 83 679 65 642 48Z" fill="#595959" fill-rule="evenodd"/><path d="M744 113 731 136 723 147 723 155 745 142 748 136 756 145 761 157 740 168 733 173 762 222 777 209 795 197 798 188 764 140 744 113Z" fill="#595959" fill-rule="evenodd"/><path d="M729 95 710 113 720 126 729 114 729 95Z" fill="#595959" fill-rule="evenodd"/><path d="M617 56 634 67 615 76 617 56Z" fill="#595959" fill-rule="evenodd"/><path d="M204 143 261 124C267 121 265 121 268 121L287 113 297 146 307 169 310 180 307 186 237 206 220 215 215 197 219 174 219 159 204 143Z" fill="#595959" fill-rule="evenodd"/><path d="M99 204 128 182 143 182C145 181 145 178 147 177L179 170 177 196 174 216 170 221 152 230 131 232 99 204Z" fill="#595959" fill-rule="evenodd"/><path d="M145 257 171 230 184 228 197 245 259 232 280 230 279 256 275 262 259 243 221 250 182 256 145 257Z" fill="#595959" fill-rule="evenodd"/><path d="M312 193 252 207 222 221 229 232 264 223 311 212 312 193Z" fill="#595959" fill-rule="evenodd"/><path d="M292 229 293 249 367 241 376 233 375 218 334 218 292 229Z" fill="#595959" fill-rule="evenodd"/><path d="M204 300 221 277 231 269 204 267 226 259 241 256 241 269 251 291 268 290 263 295 240 299 204 300Z" fill="#595959" fill-rule="evenodd"/><path d="M295 260 352 249 368 249 375 273 376 281 345 289 309 290 292 295 295 260Z" fill="#595959" fill-rule="evenodd"/><path d="M325 104 370 92 414 69 395 86 389 104 392 112 337 126 329 126 325 104Z" fill="#595959" fill-rule="evenodd"/><path d="M355 150 383 143 426 128 421 98 445 87 496 82 501 85 494 116 490 123 450 127 432 136 429 156 417 167 376 173 359 179 355 150Z" fill="#595959" fill-rule="evenodd"/><path d="M336 132 387 120 399 126 397 131 365 138C361 138 350 146 347 145L336 132Z" fill="#595959" fill-rule="evenodd"/><path d="M512 130 529 87 544 87 551 89 611 108 590 127 587 150 580 156 547 140 512 130Z" fill="#595959" fill-rule="evenodd"/><path d="M456 160 464 134 518 143 524 145 538 149 542 167 539 174 500 165 456 160Z" fill="#595959" fill-rule="evenodd"/><path d="M430 188 474 184 510 175 524 175 529 189 529 198 579 204 602 218 602 225 594 226 561 213 527 209 500 207 463 214 434 214 430 188Z" fill="#595959" fill-rule="evenodd"/><path d="M398 225 456 225 476 225 466 247 456 265 432 265 396 265 398 225Z" fill="#595959" fill-rule="evenodd"/><path d="M536 238 538 260 538 290 600 309 606 312 607 301 606 266 606 257 563 239 536 238Z" fill="#595959" fill-rule="evenodd"/><path d="M464 266 491 267 523 272 520 287 514 290 482 281 449 281 464 266Z" fill="#595959" fill-rule="evenodd"/><path d="M570 176 590 167C595 159 592 161 597 158L603 145 615 120 627 118 677 141 689 148 680 167 666 177 659 195 659 201 652 215 644 208 570 176Z" fill="#595959" fill-rule="evenodd"/><path d="M587 192 626 207 645 215 640 229 620 216C616 213 586 206 582 202L587 192Z" fill="#595959" fill-rule="evenodd"/><path d="M621 254 651 233 663 226 668 223 709 236 705 255 702 270 698 280 676 270 651 266 621 254Z" fill="#595959" fill-rule="evenodd"/><path d="M634 289 677 297 684 298 712 297 711 307 704 318 714 330 726 336 719 346 701 343 650 331 628 327 628 314 634 289Z" fill="#595959" fill-rule="evenodd"/><path d="M676 195 700 162 742 202 742 211 716 220 707 231 676 195Z" fill="#595959" fill-rule="evenodd"/><path d="M715 242 720 262 730 276 744 281 768 265 773 258 715 242Z" fill="#595959" fill-rule="evenodd"/><path d="M730 300 745 295 754 293 776 287 783 287 803 296 808 305 799 310 774 310 763 320 761 327 755 336 734 327 722 320 730 300Z" fill="#595959" fill-rule="evenodd"/><path d="M782 254 782 235 792 233 806 250 813 261 803 266 782 254Z" fill="#595959" fill-rule="evenodd"/></g></svg>