<svg width="1147" height="983" xmlns="http://www.w3.org/2000/svg" xmlns:xlink="http://www.w3.org/1999/xlink" overflow="hidden"><defs><clipPath id="clip0"><rect x="-54" y="-2" width="1147" height="983"/></clipPath></defs><g clip-path="url(#clip0)" transform="translate(54 2)"><text font-family="Arial,Arial_MSFontService,sans-serif" font-weight="400" font-size="83" transform="matrix(1 0 0 1 -4.01042 345)">W<tspan font-size="83" x="968.344" y="-174">X</tspan><tspan font-size="83" x="992.034" y="245">Y</tspan><tspan font-size="83" x="9.62356" y="323">Z</tspan></text><path d="M302.5 119.725C302.5 53.8786 355.889 0.499836 421.747 0.499836L623.815 0.499836C689.674 0.499836 723.532 25.8744 743.062 119.725 762.593 213.575 758.297 373.393 757.666 498.395 758.297 619.91 757.095 759.75 743.062 859.275 729.03 958.801 689.674 978.5 623.815 978.5L421.747 978.5C355.889 978.5 302.5 897.635 302.5 831.789L302.5 119.725Z" stroke="#000000" stroke-width="4.58333" stroke-miterlimit="8" fill="none" fill-rule="evenodd"/><path d="M325.5 138.95C325.5 76.2015 369.351 23.4999 430.226 23.4999L617.005 23.4999C677.881 23.4999 709.177 47.6809 727.23 137.117 745.283 226.553 741.312 378.854 740.729 497.977 741.312 613.776 732.869 780.044 727.23 841.883 721.592 903.723 677.881 955.5 617.005 955.5L430.226 955.5C369.351 955.5 325.5 887.606 325.5 824.857L325.5 138.95Z" stroke="#000000" stroke-width="4.58333" stroke-miterlimit="8" fill="#DDDDDD" fill-rule="evenodd"/><path d="M442.569 331.758C426.049 294.793 407.388 280.129 402.188 251.106 396.987 222.084 394.539 179.314 411.365 157.623 428.191 135.933 467.655 117.297 503.142 120.963 538.629 124.629 600.731 146.014 624.287 179.619 647.843 213.224 642.031 236.442 644.478 322.593 646.925 408.744 644.937 611.902 638.971 696.526 633.006 781.149 638.818 805.284 608.685 830.335 578.552 855.386 495.341 852.025 458.171 846.832 421.002 841.638 396.528 835.528 385.668 799.174 374.807 762.819 382.914 684.611 393.01 628.705 403.105 572.798 414.118 520.557 435.227 472.899 456.336 425.241 459.089 368.724 442.569 331.758Z" stroke="#000000" stroke-width="4.58333" stroke-miterlimit="8" fill="#FFFFFF" fill-rule="evenodd"/><path d="M348.681 389.971C344.77 353.618 360.046 322.164 382.801 319.715 405.556 317.267 427.173 344.753 431.085 381.105 434.996 417.458 419.72 448.913 396.965 451.361 374.21 453.809 352.592 426.324 348.681 389.971Z" fill-rule="evenodd"/><path d="M640.5 132C640.5 104.662 655.722 82.5 674.5 82.5 693.278 82.5 708.5 104.662 708.5 132 708.5 159.338 693.278 181.5 674.5 181.5 655.722 181.5 640.5 159.338 640.5 132Z" stroke="#000000" stroke-width="4.58333" stroke-miterlimit="8" fill="#959595" fill-rule="evenodd"/><path d="M663.5 326C663.5 304.185 675.141 286.5 689.5 286.5 703.859 286.5 715.5 304.185 715.5 326 715.5 347.815 703.859 365.5 689.5 365.5 675.141 365.5 663.5 347.815 663.5 326Z" stroke="#000000" stroke-width="4.58333" stroke-miterlimit="8" fill="#959595" fill-rule="evenodd"/><path d="M663.5 638.5C663.5 616.961 675.141 599.5 689.5 599.5 703.859 599.5 715.5 616.961 715.5 638.5 715.5 660.039 703.859 677.5 689.5 677.5 675.141 677.5 663.5 660.039 663.5 638.5Z" stroke="#000000" stroke-width="4.58333" stroke-miterlimit="8" fill="#959595" fill-rule="evenodd"/><path d="M643.701 842.129C654.779 823.373 673.698 814.039 685.957 821.28 698.216 828.521 699.173 849.596 688.095 868.352 677.016 887.107 658.098 896.441 645.838 889.2 633.579 881.959 632.622 860.884 643.701 842.129Z" stroke="#000000" stroke-width="4.58333" stroke-miterlimit="8" fill="#959595" fill-rule="evenodd"/><path d="M512.539 875.489C536.032 873.829 555.889 883.997 556.893 898.2 557.896 912.402 539.665 925.261 516.173 926.921 492.681 928.581 472.823 918.413 471.82 904.211 470.816 890.008 489.047 877.149 512.539 875.489Z" stroke="#000000" stroke-width="4.58333" stroke-miterlimit="8" fill="#959595" fill-rule="evenodd"/><path d="M419.952 889.355C429.841 905.494 430.025 923.376 420.363 929.296 410.702 935.216 394.853 926.932 384.964 910.793 375.075 894.654 374.891 876.771 384.553 870.851 394.215 864.931 410.064 873.216 419.952 889.355Z" stroke="#000000" stroke-width="4.58333" stroke-miterlimit="8" fill="#959595" fill-rule="evenodd"/><path d="M391.5 579.5C391.5 601.591 381.203 619.5 368.5 619.5 355.797 619.5 345.5 601.591 345.5 579.5 345.5 557.408 355.797 539.5 368.5 539.5 381.203 539.5 391.5 557.408 391.5 579.5Z" stroke="#000000" stroke-width="4.58333" stroke-miterlimit="8" fill="#959595" fill-rule="evenodd"/><path d="M395.175 138.11C381.389 155.33 362.064 162.766 352.011 154.718 341.958 146.67 344.985 126.186 358.771 108.966 372.558 91.7451 391.883 84.3094 401.936 92.3573 411.989 100.405 408.962 120.889 395.175 138.11Z" stroke="#000000" stroke-width="4.58333" stroke-miterlimit="8" fill="#959595" fill-rule="evenodd"/><path d="M512.551 94.3024C491.49 84.7361 479.703 65.3413 486.225 50.9827 492.747 36.6241 515.107 32.7392 536.168 42.3055 557.229 51.8717 569.016 71.2666 562.494 85.6252 555.972 99.9837 533.612 103.869 512.551 94.3024Z" stroke="#000000" stroke-width="4.58333" stroke-miterlimit="8" fill="#959595" fill-rule="evenodd"/><path d="M90.4999 315.5 380.505 383.548" stroke="#000000" stroke-width="4.58333" stroke-miterlimit="8" fill="none" fill-rule="evenodd"/><path d="M73.5001 647.5 486.363 744.376" stroke="#000000" stroke-width="4.58333" stroke-miterlimit="8" fill="none" fill-rule="evenodd"/><path d="M0 0 290.797 68.3303" stroke="#000000" stroke-width="4.58333" stroke-miterlimit="8" fill="none" fill-rule="evenodd" transform="matrix(-1 0 0 1 980.297 570.5)"/><path d="M0 0 262.481 87.7589" stroke="#000000" stroke-width="4.58333" stroke-miterlimit="8" fill="none" fill-rule="evenodd" transform="matrix(-1 0 0 1 951.981 141.5)"/></g></svg>